<svg width="37" height="38" viewBox="0 0 37 38" fill="none" xmlns="http://www.w3.org/2000/svg">
<path fill-rule="evenodd" clip-rule="evenodd" d="M18.5604 0.603516C8.50199 0.603516 0.338623 8.76688 0.338623 18.8253C0.338623 28.8837 8.50199 37.0471 18.5604 37.0471C28.6188 37.0471 36.7822 28.8837 36.7822 18.8253C36.7822 8.76688 28.6188 0.603516 18.5604 0.603516ZM18.5604 6.07007C21.5852 6.07007 24.0269 8.51178 24.0269 11.5366C24.0269 14.5614 21.5852 17.0031 18.5604 17.0031C15.5356 17.0031 13.0939 14.5614 13.0939 11.5366C13.0939 8.51178 15.5356 6.07007 18.5604 6.07007ZM7.62734 26.0776C9.97795 29.6127 14.005 31.9451 18.5604 31.9451C23.1159 31.9451 27.1429 29.6127 29.4935 26.0776C29.4388 22.4515 22.1865 20.4653 18.5604 20.4653C14.9161 20.4653 7.682 22.4515 7.62734 26.0776Z" fill="#2FC18C"/>
</svg>
