<?xml version="1.0" encoding="utf-8"?>
<!-- Generator: Adobe Illustrator 26.3.1, SVG Export Plug-In . SVG Version: 6.00 Build 0)  -->
<svg version="1.1" id="Camada_1" xmlns="http://www.w3.org/2000/svg" xmlns:xlink="http://www.w3.org/1999/xlink" x="0px" y="0px"
	 viewBox="0 0 39.7 39.7" style="enable-background:new 0 0 39.7 39.7;" xml:space="preserve">
<style type="text/css">
	.st0{fill-rule:evenodd;clip-rule:evenodd;fill:#BBBF49;}
</style>
<path class="st0" d="M19.9,1.4C9.8,1.4,1.7,9.6,1.7,19.7c0,10.1,8.2,18.2,18.2,18.2c10.1,0,18.2-8.2,18.2-18.2
	C38.1,9.6,30,1.4,19.9,1.4z M19.9,6.9c3,0,5.5,2.4,5.5,5.5c0,3-2.4,5.5-5.5,5.5s-5.5-2.4-5.5-5.5C14.4,9.4,16.9,6.9,19.9,6.9z
	 M9,26.9c2.4,3.5,6.4,5.9,10.9,5.9c4.6,0,8.6-2.3,10.9-5.9c-0.1-3.6-7.3-5.6-10.9-5.6C16.3,21.3,9,23.3,9,26.9z"/>
</svg>
